# xmcd CD database file
#
# Track frame offsets:
#	150
#	21033
#	36105
#	56787
#	75254
#	99844
#	115972
#	135638
#	157070
#	178027
#	191627
#	203839
#	223566
#	245156
#	260957
#	280107
#	300797
#	316361
#	332203
#
# Disc length: 4687 seconds
#
# Revision: 2
# Processed by: cddbd v1.5.2PL0 Copyright (c) Steve Scherf et al.
# Submitted via: CDex 1.70beta3
#
DISCID=0f124d13
DTITLE=Various Artist - image 4 emotional and relaxing
DYEAR=2004
DGENRE=Easy Listening
TTITLE0=曹雪晶 - put your hands up
TTITLE1=小松亮太 - 目覚め～ネスカフェ・ゴールドブレンドのテーマ
TTITLE2=イム・ヒョンジュ - サリー･ガーデンズ
TTITLE3=ヤーヌシュ・オレイニチャク - 夜想曲第20番嬰ハ短調(遺作)
TTITLE4=葉加瀬太郎 - 「流転の王妃・最期の皇弟」メインテーマ(イマージュ・エディション)
TTITLE5=羽毛田丈史 - 文明の道
TTITLE6=タン・ドゥン - HERO序曲
TTITLE7=加古隆 - 富の攻防
TTITLE8=宮本文昭、矢部達哉 and 長谷川陽子 - A RIVER,FLOWING BACK TO THE OCEAN
TTITLE9=オペラベイブス - ワン･ファイン･デイ
TTITLE10=二村英仁 - 夢みる葡萄〜メインテーマ
TTITLE11=鳥山雄司 - The Song of Life (2003 version)
TTITLE12=Cry and Feel it featuring 宮本文昭 - Sound produced by 鳥山雄司 - ゆらり ゆらり
TTITLE13=喜多嶋修 featuring 松島めみ - Floating Bridges
TTITLE14=ケイコ・リー - THE FLAME
TTITLE15=松谷卓 - Stargazer
TTITLE16=ヨーヨー・マ - ブラジレイリーニョ
TTITLE17=ラファエル・フォン・ブライドン - リスト: ラ・カンパネラ
TTITLE18=ゴンチチ - Chinese Bellflower (2004 MIX)
EXTD=YEAR: 2004
EXTT0=
EXTT1=
EXTT2=
EXTT3=
EXTT4=
EXTT5=
EXTT6=
EXTT7=
EXTT8=
EXTT9=
EXTT10=
EXTT11=
EXTT12=
EXTT13=
EXTT14=
EXTT15=
EXTT16=
EXTT17=
EXTT18=
PLAYORDER=
